<!--?xml version="1.0" encoding="utf-8"?-->
<!-- Generator: Adobe Illustrator 16.0.0, SVG Export Plug-In . SVG Version: 6.00 Build 0)  -->

<svg xmlns:svg="http://www.w3.org/2000/svg" xmlns="http://www.w3.org/2000/svg" xmlns:xlink="http://www.w3.org/1999/xlink" width="315px" height="125.049px" viewBox="0 0 315 125.049">
<path id="path12245" d="M260.891,113.199h-2.797v8.693h-1.141v-8.693h-2.807v-1.034h6.744V113.199z" style="position: relative; display: none;"></path>
<path id="path12257" d="M272.342,121.891h-1.135v-6.532c0-0.515,0.04-1.146,0.093-1.888l0,0c-0.117,0.444-0.214,0.752-0.303,0.949
	l-3.312,7.471h-0.556l-3.321-7.415c-0.098-0.206-0.194-0.541-0.299-1.005h-0.04c0.04,0.392,0.053,1.024,0.053,1.903v6.517h-1.091
	v-9.728h1.505l2.982,6.79c0.227,0.51,0.368,0.903,0.439,1.166h0.044c0.198-0.535,0.359-0.935,0.47-1.196l3.044-6.76h1.434v9.728
	H272.342z" style="position: relative; display: none;"></path>
<linearGradient id="path12339_1_" gradientUnits="userSpaceOnUse" x1="-436.1877" y1="992.4368" x2="-435.1877" y2="992.4368" gradientTransform="matrix(0 149.7346 149.7346 0 -148464.7188 65314.2031)">
	<stop offset="0" style="stop-color:#0994DC"></stop>
	<stop offset="0.35" style="stop-color:#66CEF5"></stop>
	<stop offset="0.35" style="stop-color:#66CEF5"></stop>
	<stop offset="0.8462" style="stop-color:#127BCA"></stop>
	<stop offset="0.8462" style="stop-color:#127BCA"></stop>
	<stop offset="1" style="stop-color:#127BCA"></stop>
</linearGradient>
<path id="path12339" fill="url(#path12339_1_)" d="M109.241,25.537c11.313,34.595,15.599,96.309,48.68,96.309l0,0
	c2.519,0,5.063-0.246,7.617-0.732l0,0c-30.071-7.012-33.636-68.054-51.985-99.665l0,0C112.114,22.756,110.685,24.118,109.241,25.537
	" style="position: relative;"></path>
<linearGradient id="path12367_1_" gradientUnits="userSpaceOnUse" x1="-436.2327" y1="992.4133" x2="-435.2327" y2="992.4133" gradientTransform="matrix(0 153.5506 153.5506 0 -152242.5313 66981.8594)">
	<stop offset="0" style="stop-color:#0E76BC"></stop>
	<stop offset="0.36" style="stop-color:#36AEE8"></stop>
	<stop offset="0.36" style="stop-color:#36AEE8"></stop>
	<stop offset="0.8462" style="stop-color:#00ADEF"></stop>
	<stop offset="0.8462" style="stop-color:#00ADEF"></stop>
	<stop offset="1" style="stop-color:#00ADEF"></stop>
</linearGradient>
<path id="path12367" fill="url(#path12367_1_)" d="M113.553,21.448c18.35,31.612,21.914,92.654,51.985,99.666l0,0
	c2.362-0.434,4.73-1.091,7.103-1.918l0,0c-26.992-13.227-34.453-72.502-55.292-101.039l0,0
	C116.087,19.207,114.82,20.307,113.553,21.448" style="position: relative;"></path>
<path id="path12379" fill="#14559A" d="M139.991,2.649c-2.514,0-5.063,0.246-7.622,0.731c-6.694,1.263-13.494,4.145-20.349,8.506
	c1.872,1.848,3.654,3.963,5.33,6.271c6.972-5.785,13.897-10.062,20.799-12.631c2.589-0.959,5.169-1.681,7.759-2.155
	C144.04,2.896,142.072,2.649,139.991,2.649" style="position: relative;"></path>
<linearGradient id="path12459_1_" gradientUnits="userSpaceOnUse" x1="-440.2209" y1="990.3499" x2="-439.2204" y2="990.3499" gradientTransform="matrix(0 -122.178 -122.178 0 121173.0703 -53666.8906)">
	<stop offset="0" style="stop-color:#1C63B7"></stop>
	<stop offset="0.5" style="stop-color:#33BDF2"></stop>
	<stop offset="1" style="stop-color:#33BDF2;stop-opacity:0.4196"></stop>
</linearGradient>
<path id="path12459" fill="url(#path12459_1_)" d="M193.712,107.004c2.762-2.196,5.527-4.624,8.299-7.274
	c-11.494-34.434-15.608-97.03-48.922-97.03c-2.382,0-4.785,0.222-7.183,0.666C176.25,10.912,180.138,76.932,193.712,107.004" style="position: relative;"></path>
<path id="path12521" fill="#3092C4" d="M145.907,3.367c-1.868-0.474-3.837-0.721-5.917-0.721l13.101,0.048
	c-2.383,0-4.786,0.222-7.184,0.671" style="position: relative;"></path>
<path id="path12525" fill="#1969BC" d="M193.13,114.319c-1.302-1.241-2.539-2.604-3.756-4.059
	c-5.604,3.968-11.187,6.977-16.734,8.936c1.974,0.964,4.044,1.681,6.239,2.125c1.701,0.348,3.464,0.525,5.316,0.525
	c6.224,0,11.146-0.737,15.336-2.746C197.225,117.853,195.11,116.238,193.13,114.319" style="position: relative;"></path>
<linearGradient id="path12553_1_" gradientUnits="userSpaceOnUse" x1="-436.2976" y1="992.3801" x2="-435.2976" y2="992.3801" gradientTransform="matrix(0 159.4252 159.4252 0 -158044.5 69539.3359)">
	<stop offset="0" style="stop-color:#166AB8"></stop>
	<stop offset="0.4" style="stop-color:#36AEE8"></stop>
	<stop offset="0.4" style="stop-color:#36AEE8"></stop>
	<stop offset="0.8462" style="stop-color:#0798DD"></stop>
	<stop offset="0.8462" style="stop-color:#0798DD"></stop>
	<stop offset="1" style="stop-color:#0798DD"></stop>
</linearGradient>
<path id="path12553" fill="url(#path12553_1_)" d="M138.147,5.531c27.18,14.216,29.542,78.59,51.229,104.729l0,0
	c1.453-1.024,2.893-2.11,4.331-3.256l0,0C180.133,76.932,176.25,10.907,145.911,3.365l0,0C143.322,3.85,140.737,4.568,138.147,5.531
	" style="position: relative;"></path>
<linearGradient id="path12581_1_" gradientUnits="userSpaceOnUse" x1="-436.3992" y1="992.3274" x2="-435.3992" y2="992.3274" gradientTransform="matrix(0 169.5276 169.5276 0 -168073.5 73965.0469)">
	<stop offset="0" style="stop-color:#124379"></stop>
	<stop offset="0.39" style="stop-color:#1487CB"></stop>
	<stop offset="0.39" style="stop-color:#1487CB"></stop>
	<stop offset="0.7802" style="stop-color:#165197"></stop>
	<stop offset="0.7802" style="stop-color:#165197"></stop>
	<stop offset="1" style="stop-color:#165197"></stop>
</linearGradient>
<path id="path12581" fill="url(#path12581_1_)" d="M117.349,18.156c20.839,28.537,28.3,87.813,55.292,101.039l0,0
	c5.548-1.959,11.132-4.968,16.735-8.936l0,0c-21.688-26.139-24.05-90.513-51.229-104.729l0,0
	C131.246,8.096,124.321,12.371,117.349,18.156" style="position: relative;"></path>
<linearGradient id="path12651_1_" gradientUnits="userSpaceOnUse" x1="555.4836" y1="-1144.6492" x2="561.4182" y2="-1144.6492" gradientTransform="matrix(4.0385 0 0 -4.0385 -2158.0581 -4587.2988)">
	<stop offset="0" style="stop-color:#33BDF2;stop-opacity:0.698"></stop>
	<stop offset="1" style="stop-color:#1DACD8"></stop>
</linearGradient>
<path id="path12651" fill="url(#path12651_1_)" d="M95.908,24.704c-3.266,7.386-6.603,17.093-10.636,29.764
	c8.021-11.303,16.018-21.041,23.969-28.931c-1.096-3.367-2.272-6.472-3.539-9.238C102.451,18.787,99.175,21.59,95.908,24.704" style="position: relative;"></path>
<path id="path12655" fill="#2B74B1" d="M108.599,14.169c-0.96,0.687-1.924,1.389-2.893,2.131c1.267,2.766,2.438,5.871,3.533,9.237
	c1.443-1.413,2.877-2.781,4.311-4.089C112.011,18.804,110.375,16.361,108.599,14.169" style="position: relative;"></path>
<path id="path12659" fill="#125A9E" d="M112.021,11.886c-1.142,0.723-2.277,1.484-3.423,2.282c1.776,2.19,3.412,4.634,4.957,7.284
	c1.268-1.146,2.534-2.251,3.796-3.296C115.675,15.85,113.894,13.734,112.021,11.886" style="position: relative;"></path>
<linearGradient id="path12741_1_" gradientUnits="userSpaceOnUse" x1="-440.28" y1="990.3196" x2="-439.28" y2="990.3196" gradientTransform="matrix(0 -119.0183 -119.0183 0 118131.4766 -52286.0039)">
	<stop offset="0" style="stop-color:#136AB4"></stop>
	<stop offset="0.6" style="stop-color:#59CAF5;stop-opacity:0.549"></stop>
	<stop offset="1" style="stop-color:#59CAF5;stop-opacity:0.2353"></stop>
</linearGradient>
<path id="path12741" fill="url(#path12741_1_)" d="M297.406,0.014c-15.372,59.28-47.479,106.895-74.395,118.898h-0.052
	c-0.489,0.223-0.974,0.425-1.453,0.621c-0.066,0.04-0.126,0.045-0.178,0.069c-0.141,0.057-0.272,0.101-0.413,0.157
	c-0.066,0.04-0.126,0.053-0.187,0.077c-0.228,0.081-0.45,0.149-0.672,0.238c-0.096,0.04-0.187,0.064-0.278,0.097
	c-0.101,0.04-0.217,0.077-0.333,0.109c-0.101,0.04-0.206,0.068-0.323,0.113c-0.096,0.04-0.196,0.057-0.287,0.097
	c-0.197,0.057-0.379,0.104-0.575,0.174c-0.081,0-0.156,0.044-0.242,0.064c-0.122,0.04-0.258,0.069-0.39,0.105
	c-0.091,0.04-0.166,0.053-0.262,0.072c-0.137,0.04-0.288,0.077-0.425,0.109c-0.182,0.04-0.343,0.077-0.515,0.113
	c1.217,0.449,2.483,0.677,3.852,0.677c25.523,0,51.259-45.741,93.84-121.807h-16.719L297.406,0.014z" style="position: relative;"></path>
<linearGradient id="path12803_1_" gradientUnits="userSpaceOnUse" x1="534.4221" y1="-1151.6912" x2="556.4358" y2="-1151.6912" gradientTransform="matrix(4.0385 0 0 -4.0385 -2158.0581 -4587.2988)">
	<stop offset="0" style="stop-color:#05A1E6;stop-opacity:0.2471"></stop>
	<stop offset="1" style="stop-color:#05A1E6"></stop>
</linearGradient>
<path id="path12803" fill="url(#path12803_1_)" d="M79.73,5.054c0.016,0,0.036-0.04,0.046-0.04c0.02,0,0.051,0,0.061-0.04
	c0,0,0.021,0,0.032,0c0.142-0.048,0.272-0.104,0.414-0.157c0.036,0,0.055,0,0.081-0.04c0.036,0,0.071-0.04,0.106-0.045
	c0.151-0.048,0.303-0.105,0.444-0.158c0,0,0.016,0,0.023,0c0.339-0.101,0.651-0.226,0.979-0.343c0.046,0,0.091-0.04,0.146-0.04
	c0.136-0.044,0.277-0.093,0.419-0.125c0.065-0.04,0.131-0.04,0.191-0.062c0.146-0.044,0.288-0.093,0.424-0.125
	c0.062,0,0.116-0.04,0.162-0.044c0.469-0.129,0.934-0.25,1.403-0.363c0.065,0,0.121-0.04,0.191-0.044
	c0.137-0.04,0.263-0.062,0.409-0.081c0.061-0.04,0.131-0.04,0.202-0.062c0.136-0.04,0.267-0.044,0.414-0.077
	c0.035,0,0.055,0,0.096,0c0.282-0.057,0.57-0.104,0.853-0.157c0.052,0,0.116,0,0.172,0c0.137-0.04,0.258-0.044,0.394-0.068
	c0.075,0,0.151-0.04,0.223-0.04c0.126,0,0.252-0.04,0.378-0.058c0.066,0,0.132,0,0.207-0.04c0.298-0.04,0.606-0.056,0.919-0.081
	c-0.883-0.085-1.792-0.142-2.716-0.142c-28.744,0-68.347,53.334-86.187,122.402c0,0,1.302,0,3.438,0
	c5.709-10.182,10.838-19.813,15.528-28.854C31.678,47.248,57.125,13.885,79.731,5.046" style="position: relative;"></path>
<path id="path12807" fill="#0D82CA" d="M95.909,24.704c3.266-3.114,6.542-5.917,9.793-8.405c-0.742-1.625-1.509-3.13-2.332-4.508
	C100.74,14.982,98.337,19.192,95.909,24.704" style="position: relative;"></path>
<path id="path12811" fill="#0D82CA" d="M98.271,5.458c1.878,1.575,3.559,3.741,5.099,6.336c0.484-0.596,0.975-1.146,1.484-1.661
	c-2.136-1.994-4.442-3.63-6.946-4.861c0.101,0.056,0.201,0.101,0.307,0.146C98.214,5.417,98.254,5.457,98.271,5.458" style="position: relative;"></path>
<linearGradient id="path12831_1_" gradientUnits="userSpaceOnUse" x1="-440.2263" y1="990.3479" x2="-439.2263" y2="990.3479" gradientTransform="matrix(0 -121.8652 -121.8652 0 120738.3438 -53529.9102)">
	<stop offset="0" style="stop-color:#318ED5"></stop>
	<stop offset="1" style="stop-color:#38A7E4"></stop>
</linearGradient>
<path id="path12831" fill="url(#path12831_1_)" d="M19.183,96.176C45.393,45.669,57.811,13.704,79.73,5.052l0,0
	C57.129,13.897,31.677,47.259,19.183,96.176" style="position: relative;"></path>
<path id="path12843" fill="#127BCA" d="M104.852,10.132c-0.51,0.52-0.994,1.065-1.484,1.661c0.823,1.378,1.59,2.877,2.338,4.508
	c0.969-0.742,1.933-1.444,2.892-2.131C107.411,12.706,106.159,11.349,104.852,10.132" style="position: relative;"></path>
<linearGradient id="path12923_1_" gradientUnits="userSpaceOnUse" x1="-440.2908" y1="990.3137" x2="-439.2908" y2="990.3137" gradientTransform="matrix(0 -118.4596 -118.4596 0 117369.3359 -52037.8281)">
	<stop offset="0" style="stop-color:#05A1E6"></stop>
	<stop offset="1" style="stop-color:#05A1E6;stop-opacity:0.549"></stop>
</linearGradient>
<path id="path12923" fill="url(#path12923_1_)" d="M31.081,124.804L31.081,124.804c-0.162,0.04-0.323,0.04-0.475,0.058
	c-0.051,0-0.061,0-0.091,0c-0.137,0-0.278,0.04-0.404,0.04c0,0-0.05,0-0.065,0c-0.328,0.04-0.651,0.04-0.964,0.064h-0.102
	c26.528-0.742,38.653-14.024,44.671-33.288c4.574-14.604,8.33-26.906,11.621-37.229C74.161,70.087,63,88.73,51.779,109.615
	c-5.412,10.066-13.641,14.271-20.697,15.17" style="position: relative;"></path>
<linearGradient id="path12949_1_" gradientUnits="userSpaceOnUse" x1="-440.7107" y1="990.0969" x2="-439.7107" y2="990.0969" gradientTransform="matrix(0 -100.1002 -100.1002 0 99172.3984 -43990.4258)">
	<stop offset="0" style="stop-color:#1959A6"></stop>
	<stop offset="0.5" style="stop-color:#05A1E6"></stop>
	<stop offset="0.5" style="stop-color:#05A1E6"></stop>
	<stop offset="0.9176" style="stop-color:#7EC5EA"></stop>
	<stop offset="1" style="stop-color:#7EC5EA"></stop>
</linearGradient>
<path id="path12949" fill="url(#path12949_1_)" d="M31.081,124.794L31.081,124.794c7.057-0.899,15.285-5.1,20.697-15.17l0,0
	C63,88.745,74.167,70.097,85.268,54.458l0,0c4.038-12.677,7.37-22.379,10.642-29.765l0,0c-22.126,21.062-44.338,56.08-64.828,100.09
	" style="position: relative;"></path>
<path id="path12961" fill="#05A1E6" d="M19.181,96.177c-4.689,9.041-9.818,18.674-15.527,28.855c2.469,0,6.043,0,10,0
	c1.323-10.112,3.201-19.754,5.528-28.851" style="position: relative;"></path>
<linearGradient id="path12981_1_" gradientUnits="userSpaceOnUse" x1="-440.6458" y1="990.6741" x2="-439.6458" y2="990.6741" gradientTransform="matrix(-19.138 -108.5369 -108.5369 19.138 99158.8359 -66667.375)">
	<stop offset="0" style="stop-color:#165096"></stop>
	<stop offset="1" style="stop-color:#0D82CA"></stop>
</linearGradient>
<path id="path12981" fill="url(#path12981_1_)" d="M88.2,2.871c-0.081,0-0.141,0.04-0.212,0.04l0,0
	c-0.121,0.04-0.247,0.04-0.373,0.053l0,0c-0.075,0-0.146,0-0.223,0.04l0,0c-0.136,0.04-0.262,0.044-0.394,0.069l0,0
	c-0.061,0-0.121,0-0.172,0.04l0,0c-0.288,0.048-0.57,0.101-0.853,0.149l0,0c-0.051,0-0.066,0-0.097,0l0,0
	c-0.146,0.04-0.277,0.061-0.413,0.081l0,0c-0.071,0.04-0.142,0.04-0.208,0.056l0,0c-0.136,0.04-0.272,0.057-0.403,0.081l0,0
	c-0.071,0.04-0.126,0.04-0.192,0.044l0,0c-0.469,0.113-0.934,0.234-1.403,0.363l0,0c-0.05,0-0.101,0.04-0.161,0.048l0,0
	c-0.142,0.04-0.278,0.081-0.424,0.126l0,0c-0.062,0.04-0.132,0.04-0.192,0.056l0,0c-0.141,0.04-0.282,0.081-0.419,0.125l0,0
	c-0.055,0-0.101,0.04-0.151,0.04l0,0c-0.323,0.121-0.641,0.242-0.975,0.344l0,0l0,0l0,0c-0.141,0.044-0.292,0.101-0.443,0.153l0,0
	c-0.062,0.04-0.117,0.049-0.188,0.077l0,0c-0.141,0.044-0.282,0.101-0.413,0.153l0,0c-0.051,0.04-0.102,0.044-0.137,0.064l0,0
	c-21.919,8.653-34.337,40.618-60.547,91.125l0,0c-2.327,9.097-4.211,18.738-5.528,28.85l0,0h1.403c3.953,0,5.068-0.04,9.617-0.04
	l0,0h0.232h0.676h0.232h0.065h0.232h0.132h0.091h0.182h0.565h0.565h0.475h0.126c0.272,0,0.55,0,0.833,0l0,0
	c0.313-0.04,0.636-0.04,0.964-0.064l0,0c0,0,0.051,0,0.061,0l0,0c0.137,0,0.272-0.04,0.404-0.04l0,0c0.05,0,0.055,0,0.096,0l0,0
	c0.146,0,0.313-0.04,0.475-0.058l0,0l0,0c20.49-44.01,42.702-79.028,64.828-100.09l0,0c2.433-5.513,4.831-9.723,7.456-12.908l0,0
	c-1.535-2.595-3.216-4.765-5.094-6.341l0,0c0,0-0.051,0-0.056-0.04l0,0c-0.105-0.044-0.206-0.097-0.313-0.149l0,0
	c-0.106-0.057-0.197-0.101-0.308-0.157l0,0c-0.096-0.04-0.207-0.093-0.303-0.146l0,0c-0.132-0.04-0.237-0.097-0.354-0.149l0,0
	c-0.096-0.04-0.182-0.081-0.278-0.121l0,0c-0.196-0.077-0.394-0.157-0.58-0.242l0,0c-0.086-0.04-0.166-0.061-0.247-0.093l0,0
	c-0.137-0.049-0.293-0.113-0.435-0.174l0,0c-0.071-0.04-0.151-0.048-0.232-0.077l0,0c-0.206-0.069-0.408-0.142-0.601-0.206l0,0
	c-0.05,0-0.05,0-0.05,0l0,0c-0.232-0.077-0.46-0.133-0.697-0.198l0,0c-0.055-0.04-0.101-0.04-0.156-0.048l0,0
	c-0.207-0.057-0.389-0.113-0.585-0.165l0,0c-0.05,0-0.096-0.04-0.137-0.04l0,0c-0.474-0.126-0.964-0.227-1.458-0.319l0,0
	c-0.052,0-0.102-0.04-0.151-0.04l0,0c-0.213-0.04-0.419-0.077-0.632-0.101l0,0c-0.051-0.04-0.081-0.04-0.126-0.04l0,0
	c-0.252-0.04-0.499-0.069-0.747-0.098l0,0c-0.05,0-0.086,0-0.131,0l0,0c-0.202-0.04-0.389-0.044-0.575-0.064l0,0
	c-0.318,0.04-0.621,0.057-0.919,0.085" style="position: relative;"></path>
<linearGradient id="path13003_1_" gradientUnits="userSpaceOnUse" x1="-442.7839" y1="989.0237" x2="-441.7835" y2="989.0237" gradientTransform="matrix(0 -56.7206 -56.7206 0 56342.9844 -25057.9297)">
	<stop offset="0" style="stop-color:#05A1E6"></stop>
	<stop offset="0.8736" style="stop-color:#0495D6"></stop>
	<stop offset="1" style="stop-color:#0495D6"></stop>
</linearGradient>
<path id="path13003" fill="url(#path13003_1_)" d="M237.364,32.831c-5.043,16.154-9.127,29.481-12.681,40.446l0,0
	c13.837-19.042,27.467-42.995,40.445-70.639l0,0C249.989,7.394,241.912,18.279,237.364,32.831" style="position: relative;"></path>
<linearGradient id="path13093_1_" gradientUnits="userSpaceOnUse" x1="-436.1711" y1="992.8958" x2="-435.1711" y2="992.8958" gradientTransform="matrix(-23.0627 130.7947 130.7947 23.0627 -139653.0938 34145.1719)">
	<stop offset="0" style="stop-color:#38A7E4;stop-opacity:0.3294"></stop>
	<stop offset="0.9615" style="stop-color:#0E88D3"></stop>
	<stop offset="0.9615" style="stop-color:#0E88D3"></stop>
	<stop offset="1" style="stop-color:#0E88D3"></stop>
</linearGradient>
<path id="path13093" fill="url(#path13093_1_)" d="M225.121,117.904c-0.706,0.359-1.413,0.701-2.109,1.009
	c26.916-12.004,59.022-59.618,74.395-118.898h-3.115C258.975,63.101,247.616,105.333,225.121,117.904" style="position: relative;"></path>
<path id="path13097" fill="#079AE1" d="M207.545,112.603c5.856-7.148,10.626-19.299,17.139-39.325
	c-7.512,10.318-15.073,19.188-22.641,26.422c0,0.04,0,0.04-0.04,0.065c1.65,4.947,3.463,9.313,5.527,12.837" style="position: relative;"></path>
<path id="path13101" fill="#1969BC" d="M207.545,112.603c-1.994,2.434-4.104,4.286-6.451,5.659c-0.515,0.299-1.035,0.58-1.565,0.838
	c2.479,1.338,5.185,2.231,8.214,2.59l0,0l0,0c0.443,0.044,0.883,0.085,1.343,0.117h0.081c0.206,0,0.424,0,0.646,0.04h0.09
	c0.222,0,0.444,0,0.661,0c0.238,0,0.475,0,0.712,0c0.077,0,0.149,0,0.223,0c0.161,0,0.335,0,0.504,0c0.081,0,0.166,0,0.247-0.04
	c0.157,0,0.323,0,0.484-0.04c0.04,0,0.04,0,0.057,0c0.065,0,0.121,0,0.182,0c0.166,0,0.348-0.04,0.525-0.058h0.04
	c0.053,0,0.109-0.04,0.161-0.04c0.187-0.04,0.38-0.057,0.561-0.085c0.062,0,0.105,0,0.166,0c0.206-0.04,0.419-0.064,0.631-0.104
	h0.04c0.04,0,0.044,0,0.061,0c0.425-0.081,0.839-0.162,1.257-0.267c-3.473-1.272-6.381-4.271-8.884-8.542" style="position: relative;"></path>
<path id="path13105" fill="#1E5CB3" d="M157.921,121.847c2.52,0,5.063-0.246,7.618-0.737c2.362-0.429,4.729-1.086,7.103-1.913
	c1.974,0.964,4.044,1.681,6.234,2.125c1.701,0.348,3.468,0.525,5.321,0.525H157.921z" style="position: relative;"></path>
<path id="path13109" fill="#1E5CB3" d="M184.198,121.847c6.22,0,11.146-0.737,15.331-2.746c2.479,1.337,5.185,2.231,8.214,2.59l0,0
	l0,0c0.444,0.044,0.884,0.085,1.343,0.117h0.081c0.206,0,0.424,0,0.646,0.04h0.093c0.222,0,0.444,0,0.661,0H184.18L184.198,121.847z
	" style="position: relative;"></path>
<path id="path13113" fill="#1D60B5" d="M210.582,121.847c0.242,0,0.479,0,0.717,0c0.069,0,0.149,0,0.223,0c0.161,0,0.327,0,0.5,0
	c0.085,0,0.165,0,0.246-0.04c0.157,0,0.323,0,0.489-0.04c0.04,0,0.04,0,0.054,0c0.064,0,0.125,0,0.186,0
	c0.165,0,0.348-0.04,0.521-0.057c0,0,0.04,0,0.044,0c0.053,0,0.104-0.04,0.157-0.04c0.186-0.04,0.38-0.056,0.56-0.085
	c0.062,0,0.109,0,0.174-0.04c0.206-0.04,0.419-0.061,0.632-0.101h0.04c0.04,0,0.044,0,0.061,0c0.424-0.081,0.838-0.161,1.257-0.267
	l0,0c1.217,0.449,2.483,0.677,3.852,0.677l-9.702,0.04L210.582,121.847z" style="position: relative;"></path>
<path id="path13117" fill="#175FAB" d="M202.019,99.766v-0.04c-2.771,2.65-5.537,5.078-8.299,7.274
	c-1.444,1.146-2.883,2.23-4.336,3.256c1.216,1.454,2.453,2.816,3.756,4.059c1.979,1.918,4.094,3.534,6.4,4.78
	c0.525-0.258,1.051-0.54,1.561-0.838c2.352-1.373,4.462-3.226,6.456-5.658c-2.064-3.524-3.877-7.891-5.527-12.838" style="position: relative;"></path>
<linearGradient id="path13139_1_" gradientUnits="userSpaceOnUse" x1="-435.8069" y1="992.634" x2="-434.8074" y2="992.634" gradientTransform="matrix(0 123.7424 123.7424 0 -122580.0313 53927.4688)">
	<stop offset="0" style="stop-color:#168CD4"></stop>
	<stop offset="0.5" style="stop-color:#1C87CC"></stop>
	<stop offset="1" style="stop-color:#154B8D"></stop>
</linearGradient>
<path id="path13139" fill="url(#path13139_1_)" d="M284.427,0.014h-13.095c-0.439,0-0.873,0-1.303,0l0,0c-0.419,0-0.822,0-1.231,0
	l0,0h-0.048c-0.848,0.04-1.671,0.069-2.483,0.121l0,0c-0.384,0.823-0.777,1.646-1.156,2.474l0,0
	c-12.979,27.644-26.608,51.598-40.445,70.639l0,0c-6.508,20.026-11.283,32.177-17.139,39.325l0,0
	c2.504,4.271,5.416,7.274,8.88,8.547l0,0c0.101-0.04,0.182-0.04,0.272-0.062l0,0c0,0,0.05,0,0.056,0l0,0
	c0.062,0,0.126-0.04,0.192-0.04l0,0c0.141-0.04,0.292-0.064,0.434-0.109l0,0c0.091-0.04,0.166-0.044,0.258-0.072l0,0
	c0.131-0.04,0.268-0.069,0.389-0.102l0,0c0.081-0.04,0.161-0.053,0.242-0.068l0,0c0.202-0.065,0.384-0.113,0.575-0.174l0,0
	c0.091-0.04,0.188-0.073,0.288-0.098l0,0c0.111-0.04,0.222-0.068,0.323-0.116l0,0c0.116-0.04,0.232-0.062,0.333-0.105l0,0
	c0.091-0.04,0.187-0.064,0.272-0.101l0,0c0.228-0.081,0.449-0.149,0.677-0.238l0,0c0.061,0,0.121-0.057,0.187-0.069l0,0
	c0.137-0.057,0.277-0.101,0.414-0.161l0,0c0.05-0.04,0.111-0.044,0.177-0.065l0,0c0.475-0.198,0.964-0.399,1.454-0.621l0,0H223l0,0
	c0.696-0.307,1.403-0.651,2.104-1.009l0,0c22.5-12.57,33.858-54.803,69.176-117.89l0,0h-9.864L284.427,0.014z" style="position: relative;"></path>
<path id="path13231" fill="#7DCBEC" d="M89.12,2.786c0.057,0,0.106,0,0.162,0.04c0.136,0,0.272,0,0.408,0.044
	c0.052,0,0.097,0,0.137,0c0.247,0.04,0.495,0.061,0.747,0.097c0.046,0,0.086,0,0.126,0.04c0.207,0.04,0.419,0.073,0.631,0.104
	c0.046,0,0.106,0.04,0.157,0.04c0.484,0.098,0.979,0.198,1.454,0.323c0.045,0,0.091,0.04,0.131,0.04
	c0.202,0.048,0.384,0.109,0.586,0.166c0.061,0,0.105,0.04,0.161,0.049c0.237,0.061,0.459,0.121,0.691,0.198
	c0.011,0,0.024,0,0.052,0.04c0.196,0.06,0.398,0.137,0.605,0.205c0.081,0.04,0.156,0.058,0.232,0.077
	c0.141,0.062,0.298,0.121,0.434,0.178c0.081,0,0.162,0.057,0.247,0.085c0.187,0.085,0.384,0.162,0.575,0.242
	c0.102,0.04,0.188,0.085,0.283,0.121c0.111,0.058,0.227,0.109,0.348,0.15c0.102,0.048,0.213,0.101,0.309,0.145
	c0.105,0.058,0.206,0.102,0.308,0.158c2.504,1.231,4.811,2.872,6.946,4.861c0.787-0.828,1.61-1.57,2.464-2.236
	c-4.67-3.312-9.96-5.2-16.063-5.2c-0.707,0-1.413,0.04-2.13,0.094" style="position: relative;"></path>
<path id="path13235" fill="#5EC5ED" d="M104.852,10.132c1.308,1.216,2.56,2.574,3.745,4.038c1.146-0.798,2.282-1.564,3.423-2.282
	c-1.494-1.494-3.069-2.837-4.71-3.993C106.457,8.557,105.639,9.304,104.852,10.132" style="position: relative;"></path>
<g id="g13243" transform="matrix(5.0481458,0,0,-5.0481458,-9064.2597,2270.6096)">
	
		<linearGradient id="path13245_1_" gradientUnits="userSpaceOnUse" x1="1710.2975" y1="254.646" x2="1711.2975" y2="254.646" gradientTransform="matrix(28.5033 -11.8223 -11.8223 -28.5033 -43924.5742 27928.3438)">
		<stop offset="0" style="stop-color:#97D6EE"></stop>
		<stop offset="0.7033" style="stop-color:#55C1EA"></stop>
		<stop offset="1" style="stop-color:#55C1EA"></stop>
	</linearGradient>
	<path id="path13245" fill="url(#path13245_1_)" d="M1813.216,449.239c0.142,0.012,0.282,0.017,0.422,0.017
		c1.209,0,2.257-0.374,3.182-1.029c0.976,0.77,2.156,1.039,3.795,1.039h-7.937C1812.861,449.266,1813.04,449.255,1813.216,449.239" style="position: relative;"></path>
</g>
<g id="g13253" transform="matrix(5.0481458,0,0,-5.0481458,-9064.2597,2270.6096)">
	
		<linearGradient id="path13255_1_" gradientUnits="userSpaceOnUse" x1="1708.9246" y1="255.8272" x2="1709.9246" y2="255.8272" gradientTransform="matrix(22.5118 10.2054 10.2054 -22.5118 -39264.5781 -11233.5049)">
		<stop offset="0" style="stop-color:#7ACCEC"></stop>
		<stop offset="1" style="stop-color:#3FB7ED"></stop>
	</linearGradient>
	<path id="path13255" fill="url(#path13255_1_)" d="M1820.615,449.266c-1.639,0-2.819-0.269-3.795-1.039
		c0.324-0.229,0.636-0.495,0.932-0.791c1.359,0.864,2.705,1.436,4.032,1.686c0.506,0.095,1.011,0.144,1.509,0.144H1820.615z" style="position: relative;"></path>
</g>
<linearGradient id="path13333_1_" gradientUnits="userSpaceOnUse" x1="-435.7578" y1="992.6594" x2="-434.7578" y2="992.6594" gradientTransform="matrix(0 121.0325 121.0325 0 -119909.875 52747.3555)">
	<stop offset="0" style="stop-color:#1DA7E7"></stop>
	<stop offset="1" style="stop-color:#37ABE7;stop-opacity:0"></stop>
</linearGradient>
<path id="path13333" fill="url(#path13333_1_)" d="M224.683,73.287c3.559-10.975,7.633-24.296,12.686-40.456
	c4.554-14.559,12.615-25.442,27.755-30.192c0.399-0.813,0.777-1.651,1.166-2.474c-24.681,1.479-36.216,14.033-42.021,32.626
	c-10.152,32.459-16.301,53.5-22.223,66.908C209.608,92.47,217.171,83.596,224.683,73.287" style="position: relative;"></path>
</svg>
